<svg xmlns="http://www.w3.org/2000/svg" width="56" height="56" viewBox="0 0 56 56">
    <g fill="none" fill-rule="evenodd">
        <path fill="#9B9B9B" d="M21.25 53.313c0 .933-.754 1.687-1.688 1.687H2.688A1.686 1.686 0 0 1 1 53.312V2.688C1 1.753 1.754 1 2.688 1h16.875c.933 0 1.687.754 1.687 1.688v50.624z"/>
        <path fill="#4A4A4A" d="M36.035 7.785L20.502 1.192a1.688 1.688 0 0 0-2.214.892L.999 42.815v8.762l8.067 3.422h8.76l19.102-45a1.687 1.687 0 0 0-.893-2.214"/>
        <path fill="#BC06E9" d="M48.117 19.816L36.184 7.884a1.686 1.686 0 0 0-2.386 0L1 40.682v8.385l5.933 5.934h8.384l32.8-32.799c.66-.66.66-1.726 0-2.386"/>
        <path fill="#FE214F" d="M54.81 35.498l-6.593-15.533a1.686 1.686 0 0 0-2.212-.895L1 38.176v8.753l3.428 8.072h8.758l40.733-17.29a1.686 1.686 0 0 0 .892-2.213"/>
        <path fill="#EAEAEA" stroke="#EAEAEA" stroke-width=".25" d="M2.688 55A1.686 1.686 0 0 1 1 53.312V36.439c0-.934.754-1.688 1.688-1.688h50.624c.934 0 1.688.754 1.688 1.688v16.874c0 .934-.754 1.688-1.688 1.688H2.688z"/>
        <path fill="#4A4A4A" d="M14.5 44.875a3.376 3.376 0 0 0-6.75 0 3.376 3.376 0 0 0 6.75 0"/>
        <path fill="#000" fill-opacity=".2" d="M1 36.438c0-.934.754-1.688 1.688-1.688h50.624c.834 0 1.496.614 1.632 1.41 0-.22-.042-.446-.133-.662l-1.034-2.435H1v3.374z"/>
        <path fill="#000" fill-opacity=".2" d="M8.287 33.395l-1.355 1.356H9.07l36.936-15.68c.498-.213 1.03-.14 1.47.104l-1.698-1.698-37.49 15.918z"/>
        <path fill="#000" fill-opacity=".2" d="M4.602 34.75h2.33L33.799 7.883c.383-.383.903-.518 1.402-.452l-2.3-.979L4.602 34.75zM19.563 1H16.9L2.576 34.75h1.846L18.288 2.085a1.688 1.688 0 0 1 1.556-1.03c-.096-.016-.18-.055-.282-.055"/>
    </g>
</svg>
