<svg xmlns="http://www.w3.org/2000/svg" width="56" height="56" viewBox="0 0 56 56">
    <path fill="#4A4A4A" fill-rule="nonzero" d="M46.676 10.065c5.68 5.115 9.25 12.527 9.25 20.773a1.25 1.25 0 0 1-1.253 1.25 6506.706 6506.706 0 0 0-30.332-.022l-4.334.006c-6.299.01-11.649.015-18.73.016-.69 0-1.25-.56-1.25-1.25 0-8.25 3.575-15.667 9.26-20.783l-6.17-6.171a1.25 1.25 0 0 1 1.767-1.768l6.185 6.185c.053.054.101.11.143.171a27.826 27.826 0 0 1 16.764-5.584A27.826 27.826 0 0 1 44.74 8.471l6.124-6.34a1.25 1.25 0 1 1 1.798 1.737l-5.985 6.197zm-18.7-4.677c-13.636 0-24.767 10.725-25.42 24.2 6.459-.002 11.535-.007 17.448-.016l4.333-.006 4.027-.006c7.408-.008 14.029-.003 25.032.025-.654-13.474-11.784-24.197-25.42-24.197zM11 24a2 2 0 1 1 0-4 2 2 0 0 1 0 4zm33 0a2 2 0 1 1 0-4 2 2 0 0 1 0 4zM2 34h52a2 2 0 0 1 2 2v13.615a2 2 0 0 1-2 2H2a2 2 0 0 1-2-2V36a2 2 0 0 1 2-2zm.5 2.5v12.615h51V36.5h-51z"/>
</svg>
