<svg xmlns="http://www.w3.org/2000/svg" width="31" height="31" viewBox="0 0 31 31">
    <path fill="#FFF" fill-rule="evenodd" d="M15.429.714c2.799 0 5.38.69 7.744 2.07a15.36 15.36 0 0 1 5.615 5.614c1.38 2.364 2.07 4.946 2.07 7.745 0 3.361-.982 6.385-2.944 9.07-1.962 2.685-4.497 4.544-7.604 5.575-.361.067-.63.02-.803-.14a.786.786 0 0 1-.261-.603l.01-1.537c.006-.985.01-1.885.01-2.702 0-1.3-.349-2.25-1.045-2.853.763-.08 1.45-.2 2.06-.361a8.206 8.206 0 0 0 1.888-.784 5.615 5.615 0 0 0 1.627-1.336c.435-.529.79-1.232 1.064-2.11.275-.877.412-1.884.412-3.023 0-1.593-.529-2.973-1.587-4.138.496-1.219.442-2.585-.16-4.098-.375-.12-.918-.047-1.628.22a10.82 10.82 0 0 0-1.848.885l-.763.482a14.258 14.258 0 0 0-3.857-.523c-1.326 0-2.612.175-3.858.523a17.83 17.83 0 0 0-.853-.543c-.355-.214-.914-.472-1.678-.773-.763-.301-1.332-.392-1.707-.271-.603 1.513-.657 2.88-.161 4.098-1.058 1.165-1.587 2.545-1.587 4.138 0 1.139.137 2.143.412 3.014.274.87.626 1.573 1.054 2.11.429.535.968.983 1.618 1.345.65.362 1.279.623 1.888.784.61.16 1.296.28 2.06.361-.523.482-.851 1.172-.985 2.07a3.984 3.984 0 0 1-.904.3c-.322.068-.703.101-1.145.101-.442 0-.881-.144-1.316-.432-.436-.288-.807-.706-1.115-1.255a3.241 3.241 0 0 0-.975-1.045c-.395-.268-.726-.429-.994-.482l-.402-.06c-.281 0-.475.03-.582.09-.107.06-.141.137-.1.231.04.094.1.187.18.281.08.094.167.174.261.241l.14.1c.295.135.587.39.875.764.288.375.499.717.633 1.025l.2.462c.175.509.47.92.884 1.235.416.315.864.516 1.346.603a8.58 8.58 0 0 0 1.397.14 5.91 5.91 0 0 0 1.114-.07l.463-.08c0 .509.003 1.101.01 1.778l.01 1.095a.786.786 0 0 1-.262.602c-.174.161-.442.208-.803.14-3.107-1.03-5.642-2.889-7.604-5.574C.981 22.528 0 19.504 0 16.143c0-2.8.69-5.38 2.07-7.745a15.36 15.36 0 0 1 5.614-5.615C10.048 1.404 12.63.714 15.43.714zM5.846 22.873c-.054.107-.14.12-.261.04-.134-.067-.181-.147-.14-.241.04-.067.126-.08.26-.04.134.067.181.147.141.24zm.623.683c-.08.094-.188.073-.322-.06-.12-.148-.134-.255-.04-.322.08-.08.188-.06.322.06.12.148.133.255.04.322zm.602.904c-.107.08-.22.033-.341-.14-.12-.175-.12-.295 0-.362.12-.094.234-.054.341.12.121.16.121.288 0 .382zm.844.844c-.107.12-.24.1-.402-.06-.174-.148-.2-.275-.08-.382.107-.12.241-.1.402.06.16.147.187.274.08.382zm1.145.502c-.053.16-.18.2-.381.12-.228-.053-.315-.154-.262-.301.054-.147.181-.194.382-.14.214.066.301.173.261.32zm1.266.1c0 .148-.107.221-.322.221-.227.027-.341-.047-.341-.22 0-.148.107-.222.321-.222.228-.027.342.047.342.221zm1.165-.2c.027.133-.067.227-.281.28-.214.054-.335 0-.362-.16-.027-.16.067-.261.281-.301.215-.027.335.033.362.18z"/>
</svg>
