<svg xmlns="http://www.w3.org/2000/svg" width="56" height="56" viewBox="0 0 56 56">
    <path fill="#4A4A4A" fill-rule="nonzero" d="M42.197 27.817l11.76-11.655a5.005 5.005 0 0 0 1.477-3.563c0-1.346-.524-2.611-1.476-3.563l-7.56-7.56c-1.904-1.904-5.217-1.908-7.13.004L27.618 13.237 14.75.369a1.26 1.26 0 0 0-1.782 0L.37 12.968a1.26 1.26 0 0 0 0 1.781l12.933 12.932-7.897 7.968c-.15.151-.258.337-.317.541L.048 53.828a1.26 1.26 0 0 0 1.558 1.558l17.638-5.04c.204-.059.39-.167.541-.317l7.968-7.896 12.932 12.932a1.256 1.256 0 0 0 1.781 0l12.6-12.599a1.26 1.26 0 0 0 0-1.781L42.196 27.817zM41.054 3.258c.952-.952 2.61-.952 3.563 0l7.56 7.56c.475.475.737 1.108.737 1.78a2.5 2.5 0 0 1-.734 1.779l-5.555 5.505L35.552 8.81l5.502-5.55zM13.12 23.938l4.148-4.15a1.26 1.26 0 1 0-1.781-1.78l-4.149 4.148-3.258-3.258 4.149-4.149a1.26 1.26 0 1 0-1.782-1.781L6.3 17.117l-3.258-3.258L13.859 3.042l11.985 11.984-10.769 10.866-1.954-1.955zm20.658-13.339l4.637 4.638-24.212 24.212-1.738-3.476a1.26 1.26 0 0 0-1.127-.697H9.321L33.78 10.6zM3.095 52.339l1.64-5.744 4.104 4.103-5.744 1.642zm14.543-4.154l-6.028 1.722-6.083-6.083 1.722-6.028h3.311l2.172 4.343c.121.244.32.442.563.563l4.343 2.172v3.31zm2.52-2.072v-2.018c0-.477-.27-.913-.696-1.127l-3.477-1.737 24.213-24.213 4.637 4.638-24.677 24.457zm21.418 6.28l-3.258-3.258 4.148-4.149a1.26 1.26 0 1 0-1.781-1.781l-4.149 4.148-3.258-3.258 4.15-4.148a1.26 1.26 0 1 0-1.782-1.782l-4.15 4.149-1.954-1.955 10.866-10.768 11.985 11.985-10.817 10.817z"/>
</svg>
