<svg xmlns="http://www.w3.org/2000/svg" width="56" height="56" viewBox="0 0 56 56">
    <g fill="#4A4A4A" fill-rule="nonzero">
        <path d="M38.412 47.817a5.688 5.688 0 0 0-6.739-4.376 5.688 5.688 0 0 1-6.738-4.376 5.688 5.688 0 0 1 4.376-6.738c1.291-.275 3.628.558 6.103 1.441 3.485 1.242 7.436 2.651 10.874 1.92 6.129-1.302 10.055-7.349 8.752-13.477C51.914 7.503 37.404-1.92 22.696 1.206 7.987 4.332-1.436 18.843 1.69 33.551c3.126 14.708 17.636 24.131 32.345 21.005a5.688 5.688 0 0 0 4.376-6.739zM3.914 33.078C1.048 19.596 9.685 6.295 23.168 3.43 36.651.563 49.952 9.201 52.818 22.684c1.042 4.902-2.1 9.74-7.002 10.781-2.809.597-6.437-.696-9.639-1.838-2.907-1.037-5.418-1.932-7.339-1.523-4.29.912-7.038 5.144-6.126 9.434.911 4.29 5.144 7.038 9.434 6.126a3.413 3.413 0 0 1 4.043 2.626 3.413 3.413 0 0 1-2.626 4.043C20.08 55.199 6.779 46.561 3.913 33.078z"/>
        <path d="M17.251 30.244a4.55 4.55 0 0 0-5.39-3.501 4.55 4.55 0 0 0-3.502 5.39 4.55 4.55 0 0 0 5.391 3.501 4.55 4.55 0 0 0 3.501-5.39zm-6.669 1.417a2.276 2.276 0 0 1 1.75-2.695 2.276 2.276 0 0 1 2.696 1.75 2.276 2.276 0 0 1-1.75 2.695 2.276 2.276 0 0 1-2.696-1.75zM19.334 18.184a4.55 4.55 0 0 0-5.39-3.5 4.55 4.55 0 0 0-3.501 5.39 4.55 4.55 0 0 0 5.39 3.5 4.55 4.55 0 0 0 3.501-5.39zM12.666 19.6a2.276 2.276 0 0 1 1.75-2.695 2.276 2.276 0 0 1 2.695 1.75 2.276 2.276 0 0 1-1.75 2.696 2.275 2.275 0 0 1-2.695-1.75zM41.563 13.459a4.55 4.55 0 0 0-5.39-3.5 4.55 4.55 0 0 0-3.501 5.39 4.55 4.55 0 0 0 5.39 3.5 4.55 4.55 0 0 0 3.501-5.39zm-6.668 1.417a2.276 2.276 0 0 1 1.75-2.695 2.276 2.276 0 0 1 2.695 1.75 2.276 2.276 0 0 1-1.75 2.696 2.275 2.275 0 0 1-2.695-1.75zM39.48 25.519a4.55 4.55 0 0 0 5.391 3.5 4.55 4.55 0 0 0 3.5-5.39 4.55 4.55 0 0 0-5.39-3.501 4.55 4.55 0 0 0-3.5 5.39zM46.15 24.1a2.276 2.276 0 0 1-1.75 2.695 2.276 2.276 0 0 1-2.696-1.75 2.276 2.276 0 0 1 1.75-2.695 2.276 2.276 0 0 1 2.696 1.75zM26.003 16.766a4.55 4.55 0 0 0 3.501-5.39 4.55 4.55 0 0 0-5.39-3.501 4.55 4.55 0 0 0-3.502 5.39 4.55 4.55 0 0 0 5.391 3.501zm-1.417-6.668a2.276 2.276 0 0 1 2.695 1.75 2.276 2.276 0 0 1-1.75 2.695 2.276 2.276 0 0 1-2.696-1.75 2.276 2.276 0 0 1 1.75-2.695z"/>
    </g>
</svg>
