<svg xmlns="http://www.w3.org/2000/svg" width="56" height="56" viewBox="0 0 56 56">
    <path fill="#FE214F" fill-rule="nonzero" d="M55.382 28.125c0-1.296-.687-2.477-1.841-3.161l-3.036-1.786 3.038-1.805c1.152-.688 1.839-1.868 1.839-3.16 0-1.29-.687-2.471-1.839-3.16-3.794-2.256-16.66-9.902-23.002-13.537-1.468-.844-3.254-.877-4.841.007 0 0-17.248 10.13-22.987 13.53-1.154.684-1.842 1.865-1.842 3.16 0 1.292.688 2.472 1.84 3.16l3.036 1.805-3.034 1.786C1.559 25.648.87 26.829.87 28.125c0 1.291.688 2.472 1.84 3.16l3.036 1.805-3.034 1.785C1.559 35.56.87 36.741.87 38.037c0 1.29.688 2.471 1.84 3.16 4.909 2.92 16.976 10.083 23 13.538a4.868 4.868 0 0 0 2.416.647c.84 0 1.677-.224 2.417-.649 6.023-3.453 18.09-10.617 23-13.537 1.151-.688 1.838-1.868 1.838-3.16 0-1.295-.687-2.476-1.841-3.16l-3.036-1.786 3.038-1.806c1.152-.687 1.839-1.868 1.839-3.159zM3.978 19.248c-.189-.114-.629-.44-.629-1.032 0-.594.438-.919.627-1.03 5.732-3.395 22.955-13.51 22.953-13.51.789-.443 1.65-.426 2.38-.008 6.326 3.626 19.18 11.263 22.966 13.516.189.113.63.44.63 1.032 0 .591-.441.918-.63 1.03-4.902 2.916-16.955 10.072-22.963 13.516a2.362 2.362 0 0 1-2.369 0c-6.01-3.444-18.063-10.6-22.965-13.514zm48.3 17.76c.188.111.626.436.626 1.03 0 .591-.44.918-.629 1.03-4.902 2.916-16.955 10.072-22.963 13.516a2.362 2.362 0 0 1-2.369 0C20.933 49.14 8.88 41.985 3.978 39.07c-.189-.114-.629-.44-.629-1.032 0-.594.438-.919.627-1.03l4.204-2.474c5.683 3.368 13.18 7.794 17.532 10.29a4.868 4.868 0 0 0 2.415.647c.84 0 1.677-.224 2.417-.649 4.35-2.494 11.846-6.92 17.529-10.288l4.205 2.474zm-.003-7.85c-4.902 2.915-16.955 10.071-22.963 13.515a2.362 2.362 0 0 1-2.369 0C20.933 39.23 8.88 32.074 3.978 29.16c-.189-.114-.629-.44-.629-1.032 0-.594.438-.919.627-1.03l4.204-2.474c5.683 3.368 13.18 7.794 17.532 10.29a4.868 4.868 0 0 0 2.415.647c.84 0 1.677-.224 2.417-.649 4.35-2.494 11.846-6.92 17.529-10.288l4.205 2.474c.188.111.626.436.626 1.03 0 .591-.44.918-.629 1.03z"/>
</svg>
