<svg xmlns="http://www.w3.org/2000/svg" width="253" height="55" viewBox="0 0 253 55">
    <defs>
        <linearGradient id="a" x1="0%" y1="0%" y2="100%">
            <stop offset="0%" stop-color="#9800D4"/>
            <stop offset="100%" stop-color="#FF214D"/>
        </linearGradient>
    </defs>
    <g fill="none" fill-rule="nonzero">
        <path fill="url(#a)" d="M.33 54.193c-.23-.198-.33-.496-.33-.826V23.939c0-.33.1-.628.33-.827.232-.231.497-.33.827-.33h5.125c.76 0 1.29.33 1.62.992l7.804 13.953 7.836-13.953c.33-.662.893-.992 1.62-.992h5.125c.331 0 .629.099.827.33.231.232.33.496.33.827v29.428c0 .33-.099.595-.33.826-.232.199-.496.33-.827.33h-5.72c-.297 0-.562-.098-.793-.33a1.075 1.075 0 0 1-.331-.793V36.9l-4.927 8.96c-.397.695-.926 1.059-1.587 1.059h-2.447c-.595 0-1.124-.33-1.587-1.058l-4.86-8.994v16.5c0 .33-.1.595-.33.826-.232.199-.497.33-.828.33h-5.72c-.33 0-.595-.098-.826-.33zm37.397.033a.935.935 0 0 1-.298-.661c0-.165 0-.33.033-.397l10.581-29.064c.298-.893.893-1.322 1.819-1.322h7.076c.892 0 1.52.43 1.818 1.322l10.58 29.064c.034.1.034.232.034.397 0 .231-.1.463-.298.661a.935.935 0 0 1-.661.298h-5.886c-.727 0-1.256-.33-1.554-.992l-1.62-4.398h-11.87l-1.62 4.398c-.298.661-.827.992-1.554.992H38.42a.952.952 0 0 1-.694-.298zm11.639-11.903h8.067L53.4 30.75l-4.034 11.573zm26.286 11.87a1.075 1.075 0 0 1-.33-.793V23.972c0-.33.099-.628.33-.827.199-.231.496-.33.827-.33h12.465c4.001 0 7.11.892 9.358 2.711s3.372 4.365 3.372 7.671c0 2.116-.496 3.902-1.488 5.39-.992 1.487-2.347 2.645-4.067 3.438l6.117 11.077c.1.165.132.364.132.496 0 .231-.099.463-.264.661-.165.199-.397.298-.694.298h-6.382c-.893 0-1.488-.397-1.852-1.224l-4.992-9.853h-4.365v9.92c0 .33-.099.595-.33.826-.232.199-.496.33-.827.33h-6.216a1.26 1.26 0 0 1-.794-.363zm13.226-17.392c1.29 0 2.282-.33 2.976-.959.694-.661 1.025-1.554 1.025-2.711 0-1.157-.33-2.083-1.025-2.778-.694-.694-1.686-1.058-2.976-1.058h-5.026v7.473h5.026v.033zm20.798 17.392c-.232-.198-.33-.496-.33-.826V23.939c0-.33.098-.628.33-.827.231-.231.496-.33.826-.33h5.125c.76 0 1.29.33 1.62.992l7.804 13.953 7.87-13.953c.33-.662.892-.992 1.62-.992h5.125c.33 0 .628.099.826.33.232.232.33.496.33.827v29.428c0 .33-.098.595-.33.826-.231.199-.496.33-.826.33h-5.754c-.297 0-.562-.098-.793-.33a1.075 1.075 0 0 1-.33-.793V36.9l-4.895 8.994c-.396.694-.925 1.058-1.587 1.058h-2.446c-.596 0-1.125-.33-1.588-1.058l-4.86-8.994v16.5c0 .33-.1.595-.33.826-.232.199-.497.33-.827.33h-5.72c-.364-.032-.629-.131-.86-.363zm42.124-2.347c-2.48-2.084-3.802-5.159-3.934-9.192-.033-.86-.033-2.15-.033-3.902 0-1.753 0-3.075.033-3.935.132-4 1.454-7.076 3.967-9.225 2.513-2.15 5.919-3.24 10.151-3.24 4.2 0 7.572 1.09 10.085 3.24 2.513 2.15 3.835 5.224 3.968 9.225.066 1.753.099 3.075.099 3.935 0 .893-.033 2.215-.1 3.902-.165 4.066-1.454 7.108-3.934 9.192-2.48 2.083-5.852 3.14-10.15 3.14-4.3 0-7.672-1.057-10.152-3.14zm13.92-5.092c.926-.96 1.422-2.414 1.488-4.365.067-1.752.1-3.009.1-3.77 0-.76-.033-1.983-.1-3.67-.066-1.95-.562-3.438-1.487-4.364-.926-.959-2.183-1.422-3.77-1.422-1.587 0-2.876.463-3.802 1.422-.926.959-1.422 2.414-1.488 4.364-.033.86-.033 2.084-.033 3.67 0 1.62 0 2.877.033 3.77.066 1.95.562 3.439 1.488 4.365.926.958 2.215 1.421 3.802 1.421 1.587 0 2.844-.496 3.77-1.421zm23.443 7.44c-.231-.2-.33-.497-.33-.827V30.155h-7.969c-.33 0-.628-.1-.826-.33-.232-.199-.331-.497-.331-.827v-5.06c0-.33.1-.627.33-.826.232-.231.497-.33.827-.33h24.633c.331 0 .629.099.827.33.232.232.33.496.33.827v5.092c0 .33-.098.595-.33.826-.231.199-.496.331-.827.331h-7.968V53.4c0 .33-.1.595-.33.826-.232.199-.497.33-.827.33h-6.316c-.364-.032-.661-.131-.893-.363zm16.93.032a.935.935 0 0 1-.298-.661c0-.165 0-.33.033-.397l10.58-29.064c.298-.893.894-1.322 1.82-1.322h7.075c.893 0 1.521.43 1.819 1.322l10.58 29.064c.034.1.034.232.034.397 0 .231-.1.463-.298.661a.935.935 0 0 1-.661.298h-5.886c-.727 0-1.256-.33-1.554-.992l-1.62-4.398h-11.87l-1.62 4.398c-.298.661-.827.992-1.554.992h-5.886c-.298 0-.53-.1-.694-.298zm11.605-11.903h8.068l-4.034-11.573-4.034 11.573zm26.981 11.87c-.231-.198-.33-.496-.33-.826v-5.985c0-.33.099-.628.33-.827.232-.231.496-.33.827-.33h5.985c.33 0 .595.099.826.33.199.232.33.496.33.827v5.985c0 .297-.098.562-.33.793-.198.232-.496.33-.826.33h-5.985a.964.964 0 0 1-.827-.297z"/>
        <path fill="#4A4A4A" d="M16.73.265h-.462a.497.497 0 0 0-.364.132c-.099.066-.165.165-.165.231l-3.01 10.184L9.524.727a.559.559 0 0 0-.232-.33c-.099-.1-.264-.132-.43-.132h-.496c-.165 0-.33.033-.43.132-.099.099-.198.198-.23.33L4.496 10.812 1.487.628c0-.066-.065-.165-.164-.231A.693.693 0 0 0 .959.265H.496a.425.425 0 0 0-.33.132c-.1.099-.133.198-.133.33l.033.265 3.472 11.374c.066.199.165.364.298.463.099.1.264.132.495.132h.43c.43 0 .728-.198.827-.628l3.009-9.589 3.075 9.655c.1.397.397.629.826.629h.43c.199 0 .364-.034.496-.133.1-.099.199-.264.298-.463l3.472-11.407.033-.265a.425.425 0 0 0-.133-.33.531.531 0 0 0-.363-.165zM29.957 1.72C28.997.594 27.675.032 25.989.032c-1.554 0-2.81.53-3.77 1.554-.925 1.025-1.487 2.38-1.62 4.1l-.033.992.033.992c.133 1.72.662 3.075 1.62 4.1.96 1.025 2.183 1.521 3.737 1.521.959 0 1.818-.165 2.612-.529.76-.364 1.356-.76 1.785-1.256.43-.496.662-.893.662-1.224a.425.425 0 0 0-.133-.33.693.693 0 0 0-.363-.133h-.397a.95.95 0 0 0-.397.066c-.066.033-.198.166-.33.364-.232.364-.662.727-1.224 1.058-.562.364-1.29.53-2.182.53-.76 0-1.422-.2-2.017-.596a3.888 3.888 0 0 1-1.323-1.587c-.33-.661-.496-1.389-.529-2.15v-.23h8.73c.165 0 .297-.034.396-.133.1-.1.166-.231.166-.397v-.364c-.034-1.983-.496-3.537-1.455-4.662zm-.066 4.166h-7.77v-.1c0-1.256.33-2.281 1.057-3.108.695-.826 1.654-1.223 2.844-1.223s2.15.397 2.844 1.223c.694.827 1.058 1.852 1.058 3.108v.1h-.033zM46.621.033c-.992 0-1.851.165-2.513.53-.694.363-1.19.793-1.52 1.256-.331.496-.497.892-.497 1.256 0 .132.067.265.166.364.099.099.231.165.397.165h.33a.667.667 0 0 0 .364-.1c.1-.065.165-.198.231-.396.133-.463.496-.86 1.025-1.19.53-.33 1.224-.496 2.05-.496 1.125 0 1.951.231 2.513.727.562.496.827 1.157.827 2.083v.86l-3.869.529c-1.488.198-2.678.628-3.538 1.323-.86.694-1.322 1.554-1.322 2.645 0 .661.198 1.29.595 1.851.397.563.926.992 1.62 1.323a4.81 4.81 0 0 0 2.182.496c1.158 0 2.05-.198 2.745-.562.694-.364 1.223-.827 1.587-1.389v1.157c0 .166.033.298.132.397.1.1.232.132.397.132h.43c.165 0 .297-.033.397-.132.099-.099.132-.231.132-.397V4.331c0-1.19-.364-2.215-1.091-3.041C49.597.463 48.374.033 46.62.033zm3.34 7.241c0 1.455-.397 2.612-1.157 3.373-.76.793-1.753 1.19-2.943 1.19-.827 0-1.554-.198-2.182-.628-.629-.397-.96-.992-.96-1.752 0-.662.331-1.224 1.026-1.654.694-.43 1.686-.76 3.042-.926l3.174-.43v.827zM63.12.265h-.892c-1.62 0-2.745.562-3.34 1.686V.827a.548.548 0 0 0-.165-.397.548.548 0 0 0-.397-.165h-.397a.548.548 0 0 0-.396.165c-.1.099-.133.231-.133.397v11.638c0 .166.033.298.133.397.099.1.231.132.396.132h.397c.166 0 .298-.033.397-.132.1-.099.165-.231.165-.397V4.861c0-.992.298-1.753.86-2.315s1.356-.86 2.315-.86h1.058c.165 0 .297-.033.396-.132.1-.1.133-.231.133-.397v-.33c0-.166-.033-.298-.133-.397-.132-.1-.231-.165-.396-.165zM75.652 1.72C74.693.594 73.371.032 71.684.032c-1.554 0-2.81.53-3.769 1.554-.926 1.025-1.488 2.38-1.62 4.1l-.033.992.033.992c.132 1.72.661 3.075 1.62 4.1.959 1.025 2.182 1.521 3.736 1.521.96 0 1.819-.165 2.612-.529.76-.364 1.356-.76 1.786-1.256.43-.496.661-.893.661-1.224a.425.425 0 0 0-.132-.33.693.693 0 0 0-.364-.133h-.397a.95.95 0 0 0-.396.066c-.066.033-.199.166-.33.364-.232.364-.662.727-1.224 1.058-.562.364-1.29.53-2.183.53-.76 0-1.421-.2-2.017-.596a3.888 3.888 0 0 1-1.322-1.587c-.33-.661-.496-1.389-.53-2.15v-.23h8.73c.165 0 .297-.034.397-.133.099-.1.165-.231.165-.397v-.364c0-1.983-.496-3.537-1.455-4.662zm-.033 4.166h-7.803v-.1c0-1.256.33-2.281 1.058-3.108.694-.826 1.653-1.223 2.843-1.223s2.15.397 2.844 1.223c.694.827 1.058 1.852 1.058 3.108v.1z"/>
    </g>
</svg>
