<svg xmlns="http://www.w3.org/2000/svg" width="41" height="41.3" viewBox="0 0 245 245">
    <defs>
        <linearGradient id="a" x1="0%" y1="0%" y2="100%">
            <stop offset="0%" stop-color="#9800D4"/>
            <stop offset="100%" stop-color="#FF214D"/>
        </linearGradient>
    </defs>
    <path fill="url(#a)" fill-rule="nonzero" d="M2.788 202.883C1.644 201.81 1 200.38 1 198.663V46.152c0-1.717.572-3.148 1.788-4.364C3.933 40.644 5.435 40 7.152 40h26.54c3.934 0 6.723 1.717 8.44 5.15l40.489 72.393 40.631-72.393c1.717-3.433 4.507-5.15 8.441-5.15h26.54c1.716 0 3.147.572 4.363 1.788 1.144 1.145 1.788 2.647 1.788 4.364v152.51c0 1.718-.572 3.148-1.788 4.221-1.145 1.073-2.647 1.646-4.364 1.646h-29.83c-1.573 0-2.932-.573-4.149-1.789-1.144-1.144-1.788-2.575-1.788-4.077v-85.555L97.07 159.605c-2.002 3.577-4.792 5.437-8.226 5.437H76.182c-3.147 0-5.865-1.789-8.226-5.437l-25.18-46.497v85.555c0 1.717-.572 3.147-1.788 4.22-1.145 1.073-2.647 1.646-4.364 1.646H7.009c-1.574 0-3.005-.573-4.22-1.646zm200.296 0c-1.144-1.073-1.788-2.503-1.788-4.22v-31.046c0-1.717.572-3.147 1.788-4.364 1.145-1.144 2.647-1.788 4.364-1.788h31.046c1.716 0 3.147.572 4.22 1.788 1.073 1.145 1.645 2.647 1.645 4.364v31.046c0 1.574-.572 2.933-1.645 4.077-1.073 1.145-2.504 1.789-4.22 1.789h-31.046c-1.717 0-3.22-.573-4.364-1.646z"/>
</svg>
