<svg xmlns="http://www.w3.org/2000/svg" width="287" height="277" viewBox="0 0 287 277">
    <g fill="none" fill-rule="evenodd">
        <path fill="#52E3BF" d="M91.865 171.286l-.294 104.92 90.717-52.721.298-104.922z"/>
        <path fill="#3AC7A4" d="M.256 223.487l91.315 52.719.294-104.92-91.313-52.72z"/>
        <path fill="#59F8D0" d="M.56 118.566l91.314 52.716 90.713-52.716-91.31-52.715L.562 118.566zm21.099-.037l69.636-40.46 70.196 40.516-69.636 40.48-70.196-40.536z"/>
        <path fill="#3AC7A4" d="M91.295 78.068v80.68L21.66 118.53z"/>
        <path fill="#52E3BF" d="M161.49 118.585l-69.635 40.479-.56-.317V78.068z"/>
        <path fill="#B9E976" d="M126.393 151.223l24.512-14.244v104.745l-24.512 14.244z"/>
        <path fill="#C6144F" d="M110.478 101.268c.43.15.825.331 1.185.54l-8.3-4.824a7.125 7.125 0 0 0-1.185-.54c-2.939-1.033-5.528-.552-7.752.733l8.3 4.823c2.224-1.286 4.813-1.766 7.752-.732M166.413 6.512c.676.239 1.298.524 1.864.853l-8.3-4.824a10.717 10.717 0 0 0-1.866-.851c-4.636-1.634-8.721-.878-12.23 1.149l8.3 4.824c3.509-2.026 7.594-2.783 12.232-1.15M86.184 112.234c.016-.001.033-.007.046-.009l-.054.004.008.005zM89.796 112.911c1.986 1.1 3.025 3.055 3.12 3.234.17-.522 3.379-10.431 9.809-14.145l-8.3-4.823c-5.22 3.014-8.319 10.115-9.392 12.959l4.884 2.837c-.037-.023-.082-.04-.12-.062M130.84 23.86c.034.006.07.007.103.015-.036-.008-.065-.017-.099-.022-.002.001-.002.005-.004.007M133.769 24.882c3.133 1.734 4.77 4.819 4.92 5.102.265-.823 5.347-16.462 15.49-22.32l-8.3-4.824c-8.238 4.759-13.137 15.963-14.83 20.45l2.915 1.693c-.063-.037-.132-.064-.195-.1M133.314 24.653"/>
        <path fill="#C6144F" d="M79.555 146.89a29.533 29.533 0 0 1-.86-.596l-.496-.37a25.553 25.553 0 0 1-.793-.63c-.16-.132-.319-.263-.475-.397-.274-.236-.535-.48-.794-.728-.13-.125-.266-.246-.393-.375a19.432 19.432 0 0 1-1.049-1.134c-.013-.017-.027-.03-.04-.045-.341-.408-.662-.83-.965-1.268-.095-.138-.181-.281-.272-.421a17.725 17.725 0 0 1-.57-.939 23.795 23.795 0 0 1-.272-.533 14.986 14.986 0 0 1-.648-1.514 13.347 13.347 0 0 1-.312-1.013c-.052-.19-.108-.38-.152-.574-.092-.408-.155-.83-.207-1.255-.019-.142-.047-.278-.06-.421a13.884 13.884 0 0 1-.052-1.772c.006-.141.03-.29.04-.432.027-.471.074-.948.15-1.44.036-.227.091-.462.138-.694.084-.423.183-.854.304-1.29a20.729 20.729 0 0 1 .723-2.122c.107-.267.21-.535.333-.807.216-.492.465-.999.728-1.507.127-.242.237-.48.373-.729.42-.76.883-1.534 1.41-2.333 2.92-4.415 5.498-6.917 7.72-8.2.386-.223.76-.406 1.124-.562.122-.05.238-.084.36-.129.234-.09.47-.177.696-.238.138-.038.268-.06.402-.088.179-.037.36-.082.53-.104l.055-.004c.136-.017.266-.022.397-.03.177-.01.352-.02.523-.015.129.004.253.015.376.028a4.9 4.9 0 0 1 .827.136c.15.04.295.079.434.125.11.037.216.076.323.117.136.054.266.116.396.177.099.049.194.094.289.148.041.022.084.039.121.061l-4.884-2.837-3.416-1.987c-1.622-.943-3.902-1.325-6.853.378-2.222 1.283-4.8 3.788-7.72 8.201-9.066 13.69-1.809 21.924 5.977 26.45l8.3 4.824c-.09-.052-.175-.11-.26-.162a33.801 33.801 0 0 1-1.038-.639c-.157-.1-.311-.207-.468-.31"/>
        <path fill="#FE214F" d="M110.478 101.268c-2.939-1.034-5.528-.554-7.752.732-6.43 3.714-9.641 13.623-9.81 14.145-.094-.18-1.133-2.135-3.12-3.234-.094-.052-.19-.099-.29-.147a5.468 5.468 0 0 0-.719-.292 5.9 5.9 0 0 0-.782-.202 5.552 5.552 0 0 0-.477-.061 4.964 4.964 0 0 0-.376-.028 5.565 5.565 0 0 0-.525.015c-.13.007-.259.013-.397.03-.013.002-.03.007-.046.009-.176.02-.356.06-.539.099-.132.028-.264.05-.402.087-.225.062-.462.151-.697.239-.119.046-.236.078-.357.13-.365.157-.74.337-1.125.56-2.22 1.284-4.8 3.788-7.72 8.202-.528.797-.99 1.572-1.41 2.334-.135.246-.247.484-.372.726-.264.51-.514 1.016-.73 1.507-.121.272-.225.54-.333.809a22.333 22.333 0 0 0-.721 2.121c-.123.436-.222.866-.304 1.29-.048.232-.102.467-.14.694a15.82 15.82 0 0 0-.15 1.44c-.01.141-.032.29-.038.432-.02.609-.003 1.198.05 1.773.014.142.043.278.06.42.054.426.118.847.209 1.255.043.193.099.383.153.575.093.343.191.684.31 1.012.071.197.146.389.226.583.129.316.27.626.421.931.09.179.179.358.274.533.179.32.37.631.57.939.09.14.175.283.27.422.303.436.624.86.967 1.267.01.015.026.028.039.045.333.393.685.769 1.05 1.134.127.129.261.25.391.374.26.248.522.492.794.729.154.134.315.264.475.397a28.826 28.826 0 0 0 1.29 1c.284.205.57.402.86.596.156.104.31.21.467.31.344.223.691.435 1.037.64 5.464 3.239 11.275 4.643 11.96 4.81 1.643-2.3 32.875-45.982 17.46-51.382"/>
        <path fill="#C6144F" d="M117.594 78.543a40.152 40.152 0 0 1-2.138-1.524c-.429-.324-.85-.66-1.265-1.002-.25-.205-.497-.408-.741-.618a39.55 39.55 0 0 1-1.267-1.164c-.203-.192-.41-.379-.603-.576-.58-.581-1.14-1.181-1.667-1.803-.02-.022-.041-.041-.058-.063a27.722 27.722 0 0 1-1.524-2c-.153-.217-.285-.446-.43-.671a25.183 25.183 0 0 1-.898-1.48c-.15-.273-.289-.556-.428-.84-.24-.482-.464-.97-.669-1.471a21.694 21.694 0 0 1-.356-.916 21.372 21.372 0 0 1-.49-1.595c-.082-.303-.173-.605-.242-.914a21.12 21.12 0 0 1-.328-1.977c-.028-.223-.074-.44-.096-.67a22.265 22.265 0 0 1-.079-2.792c.008-.226.047-.464.06-.693.046-.74.117-1.49.238-2.263.058-.36.142-.729.215-1.094.135-.672.29-1.35.482-2.045.114-.408.242-.82.376-1.235.226-.691.48-1.395.764-2.108.168-.423.333-.846.523-1.278.341-.777.738-1.574 1.153-2.377.196-.384.373-.76.587-1.15a52.935 52.935 0 0 1 2.228-3.685c4.615-6.974 8.693-10.93 12.202-12.957.611-.35 1.2-.64 1.775-.885.194-.084.376-.134.566-.207.373-.14.745-.277 1.1-.376.215-.06.422-.093.633-.138.313-.067.626-.134.927-.173.213-.024.418-.032.624-.045.28-.016.56-.031.827-.024.205.006.399.024.596.043.22.02.44.039.652.076l.099.02c.188.034.37.075.553.122.235.056.464.12.688.195.17.058.34.118.504.183.216.088.423.18.626.28.155.074.308.148.457.228.063.038.132.066.195.101l-2.915-1.693-5.387-3.131c-2.557-1.487-6.161-2.09-10.822.603-3.507 2.023-7.585 5.98-12.2 12.955-14.31 21.613-2.86 34.612 9.436 41.755l8.3 4.823c-.132-.077-.26-.162-.395-.242a54.929 54.929 0 0 1-1.656-1.02c-.246-.158-.486-.325-.732-.49"/>
        <path fill="#FE214F" d="M166.413 6.512c-4.638-1.632-8.723-.875-12.232 1.151-10.146 5.86-15.226 21.497-15.494 22.322-.15-.285-1.786-3.37-4.917-5.103-.148-.08-.302-.155-.457-.23a8.507 8.507 0 0 0-1.13-.462 8.12 8.12 0 0 0-.688-.195 7.676 7.676 0 0 0-.553-.121c-.034-.007-.069-.01-.102-.015a10.261 10.261 0 0 0-.649-.082c-.197-.019-.39-.037-.596-.043a9.581 9.581 0 0 0-.827.024c-.206.014-.411.021-.624.045-.3.037-.614.106-.927.173-.21.045-.418.079-.634.138-.354.097-.726.237-1.099.377-.19.07-.372.122-.566.206a16.55 16.55 0 0 0-1.775.885c-3.51 2.027-7.587 5.983-12.202 12.957a53.668 53.668 0 0 0-2.228 3.686c-.214.39-.391.765-.587 1.15a41.756 41.756 0 0 0-1.153 2.374c-.19.432-.355.855-.523 1.28a35.915 35.915 0 0 0-.764 2.108c-.134.414-.262.827-.376 1.235a29.887 29.887 0 0 0-.482 2.045c-.073.365-.157.734-.215 1.092a24.503 24.503 0 0 0-.238 2.265c-.013.229-.052.467-.06.693-.031.957-.005 1.887.079 2.792.022.229.068.447.096.67.084.671.185 1.334.328 1.977.07.309.16.609.242.912.146.542.306 1.077.49 1.597.112.309.231.614.356.916.205.501.428.99.669 1.472.14.283.277.566.428.84.281.506.585.996.898 1.479.145.223.277.452.43.672.479.687.984 1.356 1.524 1.999.018.022.039.04.058.063a30.415 30.415 0 0 0 1.667 1.803c.193.196.4.384.603.574.414.397.835.788 1.267 1.164.244.212.492.415.741.618.415.345.836.68 1.265 1.004.257.196.516.392.778.58.45.324.902.639 1.36.944.244.164.486.332.732.49.55.352 1.101.69 1.656 1.017 8.62 5.11 17.787 7.324 18.869 7.585 2.595-3.629 51.894-72.583 27.562-81.123"/>
        <path fill="#C6144F" d="M104.597 12.886c.291.102.56.223.801.365l-8.3-4.822a4.65 4.65 0 0 0-.8-.367c-2.001-.703-3.761-.375-5.274.499l8.3 4.824c1.513-.873 3.273-1.201 5.273-.499"/>
        <path fill="#C6144F" d="M90.258 20.695c1.516.712 2.325 2.183 2.394 2.312.115-.354 2.298-7.095 6.672-9.623l-8.3-4.824c-3.584 2.071-5.674 6.918-6.384 8.818l5.97 3.468c-.106-.062-.236-.099-.352-.151M88.732 20.317c-.194-.006-.404.035-.61.057l.012.008c.2-.022.41-.07.598-.065"/>
        <path fill="#C6144F" d="M89.196 20.382c.222.035.447.065.648.132-.203-.067-.425-.097-.648-.132"/>
        <path fill="#C6144F" d="M76.466 39.842l8.3 4.824c-.057-.033-.111-.07-.17-.106-.24-.14-.476-.285-.71-.436-.109-.069-.215-.143-.323-.216a29.452 29.452 0 0 1-.581-.402c-.112-.082-.222-.166-.333-.25a17.555 17.555 0 0 1-.55-.434c-.104-.087-.21-.173-.315-.264-.184-.16-.365-.328-.544-.5-.085-.082-.176-.164-.264-.251a13.391 13.391 0 0 1-.734-.795l-.006-.006a11.3 11.3 0 0 1-.655-.862c-.065-.095-.125-.194-.186-.291a11.47 11.47 0 0 1-.386-.633c-.065-.12-.125-.244-.186-.367a10.619 10.619 0 0 1-.287-.628 8.348 8.348 0 0 1-.363-1.084c-.038-.132-.075-.26-.107-.395-.06-.28-.102-.564-.14-.853-.012-.097-.03-.188-.04-.285a9.183 9.183 0 0 1-.034-1.205c.004-.099.019-.2.026-.3.02-.319.05-.643.103-.974.024-.155.061-.311.091-.468a12.34 12.34 0 0 1 .373-1.417c.095-.296.204-.598.326-.907.072-.181.143-.364.225-.55.147-.335.318-.678.495-1.02.088-.168.162-.332.257-.5.285-.518.598-1.045.956-1.587 1.986-3.002 3.738-4.705 5.249-5.577a6.254 6.254 0 0 1 1.483-.627c.162-.045.3-.041.454-.067a5.76 5.76 0 0 1 .231-.034c.207-.024.417-.063.611-.058.166.006.31.041.464.066.223.033.445.065.648.132.147.05.278.115.414.18.115.053.245.09.354.151l-5.97-3.47-2.33-1.352c-1.103-.643-2.655-.902-4.659.257-1.51.87-3.263 2.572-5.249 5.575-6.16 9.313-1.231 14.91 4.062 17.986"/>
        <path fill="#FE214F" d="M99.324 13.384c-4.375 2.526-6.558 9.269-6.672 9.623-.069-.129-.877-1.6-2.393-2.312-.136-.065-.269-.13-.416-.18-.2-.067-.425-.1-.646-.133-.157-.024-.3-.06-.466-.065-.186-.005-.397.043-.598.065-.08.01-.16.013-.244.026-.154.027-.292.023-.454.068a6.19 6.19 0 0 0-1.483.63c-1.509.869-3.263 2.571-5.247 5.574-.358.542-.67 1.07-.957 1.587-.095.168-.17.332-.256.5-.177.342-.348.685-.495 1.02-.082.184-.153.369-.225.551a14.918 14.918 0 0 0-.49 1.44c-.084.298-.151.59-.209.883-.032.157-.067.315-.091.47-.052.33-.084.653-.105.972-.007.1-.02.203-.024.3-.015.413-.004.816.032 1.205.01.097.03.188.043.285.035.288.08.575.14.853.03.134.068.264.106.395.061.233.13.462.21.685.047.134.1.267.153.399.09.212.182.423.285.628.061.122.123.247.188.366.12.217.251.427.385.634.062.097.12.195.185.29.207.297.425.587.657.863l.006.005c.231.274.479.539.732.796.088.087.179.17.266.253.18.17.358.337.544.497.105.092.209.177.315.265.18.149.361.292.55.434.108.084.22.168.333.25.192.137.386.27.58.402.107.072.213.147.323.216.235.15.472.296.71.436 3.712 2.2 7.66 3.153 8.125 3.265 1.12-1.563 22.356-31.254 11.876-34.94-2-.702-3.76-.374-5.273.5"/>
        <path fill="#4CD0AF" d="M195.566 264.303l-14.173 9.973 90.719-52.719 14.173-9.976z"/>
        <path fill="#3AC7A4" d="M127.737 155.052l-14.173 9.975 67.829 109.25 14.173-9.974z"/>
        <path fill="#52E3BF" d="M286.285 211.581l-67.829-109.248-90.719 52.718 67.83 109.253z"/>
        <path fill="#CCBD00" d="M200.466 192.305l.79-.458c-.05-.056-.106-.123-.155-.18l-.635.638zM193.316 132.838l.046.028a.93.93 0 0 0-.044-.03l-.002.002zM213.263 170.39c-.594 2.863-1.552 5.51-2.656 7.894 1.104-2.384 2.062-5.031 2.656-7.894M188.157 135.836c-.523.093-.952.328-1.26.732l1.26-.732z"/>
        <path fill="#CCBD00" d="M193.17 132.747l-.005.004c.05.03.1.056.15.088l.002-.002c-.046-.03-.098-.06-.147-.09"/>
        <path fill="#B9E976" d="M161.488 134.855l21.737-12.428 68.402 109.632-21.473 12.632z"/>
    </g>
</svg>
