<svg xmlns="http://www.w3.org/2000/svg" width="56" height="56" viewBox="0 0 56 56">
    <defs>
        <linearGradient id="a" x1="-9.667%" x2="109.072%" y1="-30.25%" y2="110.951%">
            <stop offset="0%" stop-color="#9800D4"/>
            <stop offset="100%" stop-color="#FF214D"/>
        </linearGradient>
    </defs>
    <g fill="none" fill-rule="evenodd">
        <path fill="#D6D6D6" d="M51.625 1H4.375A3.375 3.375 0 0 0 1 4.375v47.25A3.375 3.375 0 0 0 4.375 55h47.25A3.375 3.375 0 0 0 55 51.625V4.375A3.375 3.375 0 0 0 51.625 1"/>
        <path fill="#F6F6F6" d="M49.321 11H5.68C4.752 11 4 11.747 4 12.667v36.666C4 50.254 4.752 51 5.679 51H49.32c.927 0 1.679-.746 1.679-1.667V12.667c0-.92-.752-1.667-1.679-1.667"/>
        <path fill="#FFF" d="M19.3 4c-.938 0-1.7.672-1.7 1.5S18.362 7 19.3 7 21 6.328 21 5.5 20.238 4 19.3 4m-6.8 0c-.938 0-1.7.672-1.7 1.5S11.562 7 12.5 7s1.7-.672 1.7-1.5S13.438 4 12.5 4M7.4 5.5c0 .828-.762 1.5-1.7 1.5S4 6.328 4 5.5 4.762 4 5.7 4s1.7.672 1.7 1.5"/>
        <path fill="url(#a)" d="M21.077 43.114a.843.843 0 0 0-.846.84v4.205c0 .465.378.841.846.841h11.846a.843.843 0 0 0 .846-.84v-4.205a.843.843 0 0 0-.846-.841H21.077zm0-18.5a.843.843 0 0 0-.846.84v15.137c0 .465.378.84.846.84h11.846a.843.843 0 0 0 .846-.84V25.455a.843.843 0 0 0-.846-.841H21.077zm0-12.614a.843.843 0 0 0-.846.84v9.25c0 .466.378.842.846.842h11.846a.843.843 0 0 0 .846-.841v-9.25a.843.843 0 0 0-.846-.841H21.077zm15.23 24.386a.843.843 0 0 0-.845.841V48.16c0 .465.378.841.846.841h11.846a.843.843 0 0 0 .846-.84V37.226a.843.843 0 0 0-.846-.84H36.308zm0-10.09a.843.843 0 0 0-.845.84v6.728c0 .465.378.84.846.84h11.846a.843.843 0 0 0 .846-.84v-6.728a.843.843 0 0 0-.846-.84H36.308zm0-14.296a.843.843 0 0 0-.845.84v10.933c0 .465.378.84.846.84h11.846a.843.843 0 0 0 .846-.84V12.84a.843.843 0 0 0-.846-.841H36.308zM5.848 41.432a.843.843 0 0 0-.847.84v5.887c0 .465.378.841.846.841h11.846a.843.843 0 0 0 .846-.84v-5.887a.843.843 0 0 0-.846-.841H5.846zm0-13.455a.843.843 0 0 0-.847.841V38.91c0 .465.378.841.846.841h11.846a.843.843 0 0 0 .846-.84V28.817a.843.843 0 0 0-.846-.84H5.846zm0-15.977a.843.843 0 0 0-.847.84v12.615c0 .465.378.84.846.84h11.846a.843.843 0 0 0 .846-.84V12.84a.843.843 0 0 0-.846-.841H5.846z" transform="translate(1 1)"/>
    </g>
</svg>
